<?xml version="1.0" encoding="iso-8859-1"?>
<!-- Generator: Adobe Illustrator 19.0.0, SVG Export Plug-In . SVG Version: 6.00 Build 0)  -->
<svg version="1.1" id="Capa_1" xmlns="http://www.w3.org/2000/svg" xmlns:xlink="http://www.w3.org/1999/xlink" x="0px" y="0px"
	 viewBox="0 0 512.001 512.001" style="enable-background:new 0 0 512.001 512.001;" xml:space="preserve">
<path style="fill:#FF9F00;" d="M493.694,237.901c-12.9-32.4-40.299-57.898-72.999-69.598c-32.998-12.001-69.298-9.6-100.196,6.899
	c-30.9,16.201-53.399,44.999-62.098,78.598l-2.401,9.9l-2.401-9.9c-8.699-33.599-31.198-62.397-62.098-78.598
	c-30.898-16.499-67.198-18.899-100.196-6.899c-32.7,11.7-60.099,37.199-72.999,69.598C5.107,270,6.308,306.598,21.308,338.097
	l79.598,165.495c2.699,5.101,7.8,8.401,13.799,8.401h282.592c5.999,0,11.1-3.3,13.799-8.401l79.598-165.495
	C505.692,306.598,506.893,270,493.694,237.901z"/>
<path style="fill:#FF8700;" d="M490.693,338.097l-79.598,165.495c-2.699,5.101-7.8,8.401-13.799,8.401H256V263.7l2.401-9.9
	c8.699-33.599,31.198-62.397,62.098-78.598c30.898-16.499,67.198-18.899,100.196-6.899c32.7,11.7,60.099,37.199,72.999,69.598
	C506.893,270,505.692,306.598,490.693,338.097z"/>
<g>
	<path style="fill:#FD3C65;" d="M393.995,353.396l-84.896,64.198l-23.1,94.398H226l-23.1-94.398l-84.896-64.198
		c-13.801-10.499-16.799-31.198-3.301-44.999c10.501-11.1,29.1-10.8,41.699-1.199l99.597,67.798l99.597-67.798
		c12.599-9.6,31.198-10.201,41.699,1.199C410.496,321.898,408.095,342.898,393.995,353.396z"/>
	<path style="fill:#FD3C65;" d="M293.799,0.008c-16.499,0-29.398,7.5-37.799,17.099c-8.401-9.6-21.3-17.099-37.799-17.099
		c-29.398,0-52.198,24.299-52.198,55.497c0,37.799,37.199,62.099,80.697,99.898c2.999,2.401,5.7,3.6,9.3,3.6
		c3.6,0,7.5-1.199,10.499-3.6c38.1-32.998,79.499-59.698,79.499-99.898C345.997,24.308,323.198,0.008,293.799,0.008z"/>
</g>
<path style="fill:#FD003A;" d="M345.997,55.506c0,40.2-41.399,66.9-79.499,99.898c-2.999,2.401-6.899,3.6-10.499,3.6V17.108
	c8.401-9.6,21.3-17.099,37.799-17.099C323.198,0.008,345.997,24.308,345.997,55.506z"/>
<path style="fill:#FF9F00;" d="M3.641,135.959c-11.338-31.192,4.68-65.57,35.858-76.902c31.607-11.437,66.647,5.005,77.902,35.858
	c11.293,31.071-4.556,65.483-35.858,76.902C50.54,183.117,14.958,167.037,3.641,135.959z"/>
<path style="fill:#FF8700;" d="M430.473,171.818c-31.134-11.346-47.236-45.64-35.873-76.902
	c11.311-31.005,46.486-47.252,77.902-35.858c31.18,11.333,47.196,45.711,35.858,76.902
	C497.154,166.733,461.712,183.228,430.473,171.818z"/>
<path style="fill:#FD003A;" d="M393.995,353.396l-84.896,64.198l-23.1,94.398h-29.999V374.997l99.597-67.798
	c12.599-9.6,31.198-10.201,41.699,1.199C410.496,321.898,408.095,342.898,393.995,353.396z"/>
<path style="fill:#FEDB41;" d="M300.999,329.998c0,24.898-20.098,44.999-44.999,44.999c-24.9,0-44.999-20.1-44.999-44.999
	c0-24.9,20.098-44.999,44.999-44.999C280.9,284.999,300.999,305.099,300.999,329.998z"/>
<path style="fill:#FCBF29;" d="M300.999,329.998c0,24.898-20.098,44.999-44.999,44.999v-89.997
	C280.9,284.999,300.999,305.099,300.999,329.998z"/>
<g>
</g>
<g>
</g>
<g>
</g>
<g>
</g>
<g>
</g>
<g>
</g>
<g>
</g>
<g>
</g>
<g>
</g>
<g>
</g>
<g>
</g>
<g>
</g>
<g>
</g>
<g>
</g>
<g>
</g>
</svg>
